HIERARCHY
ROOT Hips
{
  OFFSET 40.9192 92.6879 18.85
  CHANNELS 6 Xposition Yposition Zposition Zrotation Xrotation Yrotation
  JOINT LeftUpLeg
  {
    OFFSET 8.64259 1.95398 -2.38835
    CHANNELS 3 Zrotation Xrotation Yrotation
    JOINT LeftLeg
    {
      OFFSET 43.7702 0 0
      CHANNELS 3 Zrotation Xrotation Yrotation
      JOINT LeftFoot
      {
        OFFSET 40.6238 0 0
        CHANNELS 3 Zrotation Xrotation Yrotation
        JOINT LeftToeBase
        {
          OFFSET 12.7242 0 0
          CHANNELS 3 Zrotation Xrotation Yrotation
          End Site
          {
            OFFSET 0 0 0
          }
        }
      }
    }
  }
  JOINT RightUpLeg
  {
    OFFSET -8.2249 1.95398 -2.59336
    CHANNELS 3 Zrotation Xrotation Yrotation
    JOINT RightLeg
    {
      OFFSET 43.5653 0 0
      CHANNELS 3 Zrotation Xrotation Yrotation
      JOINT RightFoot
      {
        OFFSET 40.6238 0 0
        CHANNELS 3 Zrotation Xrotation Yrotation
        JOINT RightToeBase
        {
          OFFSET 12.7242 0 0
          CHANNELS 3 Zrotation Xrotation Yrotation
          End Site
          {
            OFFSET 0 0 0
          }
        }
      }
    }
  }
  JOINT Spine
  {
    OFFSET 0.165834 0.87714 6.61349
    CHANNELS 3 Zrotation Xrotation Yrotation
    JOINT Spine1
    {
      OFFSET 7.38963 1.71661e-005 0
      CHANNELS 3 Zrotation Xrotation Yrotation
      JOINT Spine2
      {
        OFFSET 11.9445 1.14441e-005 0
        CHANNELS 3 Zrotation Xrotation Yrotation
        JOINT Spine3
        {
          OFFSET 14.7254 4.19617e-005 0
          CHANNELS 3 Zrotation Xrotation Yrotation
          JOINT Spine4
          {
            OFFSET 10.9679 0 0
            CHANNELS 3 Zrotation Xrotation Yrotation
            JOINT RightShoulder
            {
              OFFSET 2.46616 -1.6653 3.69651
              CHANNELS 3 Zrotation Xrotation Yrotation
              JOINT RightArm
              {
                OFFSET 13.0012 0 0
                CHANNELS 3 Zrotation Xrotation Yrotation
                JOINT RightForeArm
                {
                  OFFSET 28.7848 1.52588e-005 0
                  CHANNELS 3 Zrotation Xrotation Yrotation
                  JOINT RightHand
                  {
                    OFFSET 26.5688 1.52588e-005 0
                    CHANNELS 3 Zrotation Xrotation Yrotation
                    End Site
                    {
                      OFFSET 0 0 0
                    }
                  }
                }
              }
            }
            JOINT LeftShoulder
            {
              OFFSET 2.38034 -1.29275 -3.7523
              CHANNELS 3 Zrotation Xrotation Yrotation
              JOINT LeftArm
              {
                OFFSET 16.3182 6.10351e-005 0
                CHANNELS 3 Zrotation Xrotation Yrotation
                JOINT LeftForeArm
                {
                  OFFSET 27.0901 0 0
                  CHANNELS 3 Zrotation Xrotation Yrotation
                  JOINT LeftHand
                  {
                    OFFSET 24.5451 1.52588e-005 0
                    CHANNELS 3 Zrotation Xrotation Yrotation
                    End Site
                    {
                      OFFSET 0 0 0
                    }
                  }
                }
              }
            }
            JOINT Neck
            {
              OFFSET 5.0226 -0.0266342 0
              CHANNELS 3 Zrotation Xrotation Yrotation
              JOINT Head
              {
                OFFSET 6.69363 2.86102e-005 0
                CHANNELS 3 Zrotation Xrotation Yrotation
                End Site
                {
                  OFFSET 0 0 0
                }
              }
            }
          }
        }
      }
    }
  }
}
MOTION
Frames:	17
Frame Time:	0.0416667
-290.777 92.3038 -294.58 36.6111 -51.1319 47.2626 -172.039 40.6656 88.9121 158.396 -76.9957 -166.979 -25.9672 -22.9345 -65.8149 -82.5913 -58.8666 -37.2506 167.79 35.9919 85.2896 -150.989 63.1587 134.196 83.578 -0.19902 -0.585812 35.0536 3.69102 -149.475 3.89371 -0.928363 -89.1539 28.8677 7.87476 -0.902649 17.2202 7.82734 -1.25048 -5.50392 7.77967 1.52066 14.5087 7.77966 1.52065 116.658 -17.147 -45.7764 70.6084 -55.4451 57.2618 3.23293 12.3033 -103.987 -2.43981 0.128738 -52.3396 -82.3025 -24.4083 87.3712 -74.5048 38.0814 43.2026 -11.1927 -8.40417 -82.864 10.5219 -0.120845 -4.63817 -17.5604 -4.19984 0.362709 -54.7667 0.0328072 -8.93537 
-288.738 93.072 -294.254 54.4502 -56.3107 63.4129 -171.964 28.159 90.777 -173.468 -85.7926 -139.569 -20.9956 -19.8831 -70.7802 -77.2992 -48.4622 -40.3545 171.363 24.4533 83.7191 -169.351 61.5542 149.475 75.0502 0.737415 -0.119665 45.4624 -12.0314 -156.817 3.04132 0.375023 -89.9705 26.3083 5.70059 -2.14076 14.6475 5.60089 -2.39018 -7.98611 6.07954 -0.322704 12.0265 6.07954 -0.322714 107.447 -24.4345 -70.2506 61.4419 -36.2703 51.0189 5.69743 7.99116 -103.546 -0.918911 -0.236127 -42.8504 -87.6928 -30.9197 77.8827 -65.8935 25.4391 41.8229 -11.3743 -7.65476 -84.3585 8.96093 -0.0693395 -4.1724 -34.1127 -2.2851 3.24536 -37.6523 0.29293 -6.84411 
-288.088 94.2872 -294.09 80.229 -55.2752 83.2673 -171.349 14.8106 90.4785 -36.6316 -56.5243 -5.13547 7.82625 -17.842 -64.77 1.72358 -9.81997 -30.9857 -178.104 29.6379 93.2683 -27.7462 69.131 -9.24956 56.243 0.806896 0.770136 123.107 -0.914835 8.27954 1.12259 2.69185 -90.6448 21.4678 1.87011 -1.58873 9.79673 1.7984 -1.66949 -12.742 2.26091 -0.953239 7.27069 2.26089 -0.953237 95.6137 -34.1156 -94.181 49.3385 -26.1224 41.8168 10.1509 6.26945 -103.166 2.21068 -0.429057 -22.9651 -83.0653 -36.0259 87.5811 -56.0204 23.0411 34.4319 -11.5908 -7.31738 -84.7439 6.93718 -0.145799 -5.04267 -35.0571 0.887651 9.68173 -28.3376 3.32474 -2.56839 
-285.398 93.8519 -291.725 92.3918 -46.7593 92.9527 -170.274 8.84846 92.2142 -35.7641 18.2844 -5.12386 45.3403 -15.9632 -9.42508 62.9736 27.8852 3.29286 179.163 20.1672 96.511 -16.8963 -4.61047 -1.04796 56.7076 -0.657898 -0.323834 38.6022 1.40414 -1.08642 -0.374782 4.33079 -90.0901 18.218 -0.779841 -0.00807072 6.54736 -0.779454 0.026253 -15.9902 -0.741332 -0.242061 4.02243 -0.74133 -0.242061 87.6014 -44.9084 -106.023 38.2437 -23.2992 35.3673 15.7229 6.09418 -105.791 3.67996 0.7572 3.10047 -83.0364 -35.9802 87.6192 -47.4739 22.0463 26.312 -13.3802 -7.24931 -84.8499 6.63056 -0.150516 -5.39563 -34.7846 2.97557 5.09968 -19.7739 3.82226 1.68631 
-280.091 92.7266 -287.954 101.116 -39.8587 101.518 -168.662 -2.63642 95.5878 -30.877 54.1605 -9.18665 48.4594 -9.69599 23.4524 55.3214 26.0625 18.0042 -179.725 16.1922 98.4555 -3.6847 1.28982 -0.638543 63.6341 -1.49181 -0.778324 48.3808 -0.303922 -11.9757 -0.686728 6.38729 -90.0194 14.1013 -1.37028 0.14832 2.43104 -1.36242 0.208494 -20.1098 -1.35152 -0.270438 -0.0971363 -1.3515 -0.270441 91.0711 -49.4346 -99.3016 30.2043 -24.5574 21.3487 20.6845 6.01144 -108.636 -0.355545 0.759545 13.3363 -84.9722 -37.0819 84.3458 -35.0336 21.2277 12.1129 -2.87465 -6.46041 -84.165 -4.38151 -0.131792 -2.01778 -24.107 2.79008 -1.6072 -18.3985 2.31417 3.27692 
-273.458 91.098 -282.53 107.954 -35.0815 106.986 -165.628 -13.2202 101.247 -33.3768 61.1495 -7.23133 50.3923 -6.61005 26.8158 55.0525 25.2822 16.5003 178.318 10.9463 99.4583 -5.77318 6.03813 3.28523 63.5761 -1.70953 -0.920898 45.4163 0.163719 -8.40575 -0.475009 8.21035 -90.3234 10.4521 -1.09447 -0.54926 -1.21847 -1.11759 -0.500559 -23.7555 -0.878797 -0.85281 -3.74281 -0.878784 -0.852809 97.3289 -49.1921 -89.5879 24.7806 -23.3238 7.79666 21.4464 5.43661 -110.429 -2.23532 0.469796 15.1654 -88.5679 -41.2267 79.0327 -23.6533 18.6532 0.167263 1.26316 -5.83183 -83.7321 -8.32787 -0.338981 0.513946 -11.5995 0.703475 -3.54045 -20.6696 0.394506 2.42057 
-265.414 89.816 -276.855 109.542 -34.8855 111.073 -163.285 -14.75 106.579 -45.1735 46.7749 -0.367636 52.059 -5.79681 7.75481 50.6342 21.2387 18.441 178.777 10.6827 102.46 -14.9794 0.887039 3.94067 55.1596 -0.120689 -0.0277004 35.2375 0.295081 -5.68402 -0.181606 8.74702 -90.948 9.37164 -0.788315 -1.81249 -2.30025 -0.867311 -1.77606 -24.8257 -0.20724 -1.96555 -4.81307 -0.207235 -1.96556 97.9403 -48.3108 -88.7077 22.8729 -21.3108 3.01062 20.5271 5.09385 -111.36 -2.20557 0.475926 18.1291 -90.8038 -44.1046 76.0958 -21.8016 17.4106 -2.02812 -4.41918 -6.26775 -82.7178 -2.48864 -0.117951 -3.22444 -6.74703 0.0213451 -1.84911 -21.8791 -0.118373 1.63215 
-257.835 89.7228 -271.096 108.756 -35.3355 110.509 -166.412 -7.94842 105.95 -58.7443 32.2242 2.12518 42.253 -11.806 -7.93004 49.0801 19.5511 18.0152 -178.776 14.5941 104.92 -31.571 3.77463 1.10246 63.4376 -3.35985 -1.9385 28.2895 0.171663 -2.73951 -0.0610148 8.586 -91.0485 9.6915 -0.595646 -2.03197 -1.98085 -0.684486 -2.0038 -24.5033 0.0424335 -2.11701 -4.49061 0.0424385 -2.11702 97.2791 -47.5713 -89.8295 22.8566 -21.0626 2.54537 19.9143 5.12787 -110.922 -1.4665 0.6327 19.3544 -91.7072 -44.8232 74.8601 -23.124 18.3129 -0.156442 -14.0066 -7.21121 -82.2135 6.68571 -0.238168 -6.19292 -6.90315 0.0307089 -0.974509 -22.2423 -0.156475 1.56212 
-250.597 91.3522 -265.197 104.31 -37.8918 105.294 -169.573 6.03643 102.235 -67.8385 21.8828 1.26602 46.496 -8.64693 -0.798641 35.7093 5.41527 11.8764 179.691 12.6003 102.314 -33.8311 -0.97008 0.80931 69.6669 -4.73901 -2.52697 21.5535 0.0221251 -3.01404 0.171208 8.11705 -90.8145 10.6367 -0.0337722 -1.61595 -1.03524 -0.104843 -1.61291 -23.5628 0.453393 -1.55142 -3.55013 0.453402 -1.55143 95.9831 -46.7543 -92.0077 22.6351 -20.1684 1.90062 21.5722 3.59561 -108.644 -1.18989 0.674176 15.0959 -91.6391 -45.9768 75.272 -22.275 17.7111 -1.29741 -16.955 -7.77496 -81.2135 7.43795 -0.320921 -7.05395 -7.98417 0.34078 -0.248252 -21.1191 0.161779 1.34342 
-243.369 93.711 -259.285 97.0976 -41.6841 98.2128 -170.143 18.7953 97.3349 -61.1961 13.6815 -0.117397 55.0946 -2.40344 -0.0515502 34.0251 3.96439 7.4429 179.31 8.79308 99.6451 -27.4016 -4.02695 -0.174592 71.4801 -5.69396 -2.94536 22.8298 -0.0368673 -2.25093 0.456439 7.48748 -90.5412 11.9018 0.652644 -1.1502 0.230491 0.601404 -1.17781 -22.3033 0.968145 -0.900898 -2.29067 0.968149 -0.900906 95.74 -45.287 -92.6021 22.5954 -20.2794 -0.509753 20.6614 2.02778 -101.909 -1.58309 0.44718 8.20701 -91.0282 -46.2412 76.29 -23.396 16.2857 -0.23635 -15.5193 -7.10057 -82.6554 8.52218 -0.35692 -7.18966 -8.17383 0.644856 1.26639 -21.3035 0.534561 0.424124 
-236.325 94.8286 -253.584 93.8056 -44.5812 93.6593 -171.355 22.7219 93.8663 -40.595 11.8628 -1.2927 58.6786 -0.172519 0.758514 40.9259 10.7176 15.4578 178.033 2.35089 96.5576 -22.2993 -8.43438 -1.01865 73.2249 -6.30916 -3.14668 25.195 0.0741376 -2.67887 0.621062 7.22159 -90.2574 12.4333 1.11182 -0.640126 0.762603 1.08256 -0.688441 -21.776 1.25278 -0.276345 -1.76332 1.2528 -0.276342 95.3682 -44.4362 -93.3392 22.7236 -20.6821 -2.34216 20.8718 -1.86843 -94.3014 -3.89963 0.210169 -0.465947 -89.9143 -46.117 77.9945 -24.3293 13.9112 1.2752 -12.1351 -6.33862 -84.3435 5.02689 -0.315072 -7.82 -8.2756 1.52418 2.15696 -20.7271 1.36558 0.573291 
-229.382 94.6566 -248.173 95.0205 -47.5212 92.4208 -172.065 19.0581 92.1728 -11.6053 10.6256 -2.31177 60.8013 1.57762 2.8037 42.083 11.9117 15.433 174.513 -5.38975 92.414 -20.0085 -13.3293 -0.843564 75.7133 -7.24388 -3.41759 28.4868 0.157155 -2.48303 0.77921 7.35853 -90.0293 12.1591 1.53499 -0.229398 0.489069 1.52341 -0.296761 -22.0533 1.53295 0.242646 -2.04064 1.53295 0.242647 95.2369 -43.0503 -93.7748 22.6095 -21.293 -4.66874 19.9339 -3.61908 -88.8202 -8.08045 0.16303 -5.53231 -88.6951 -46.4315 79.9667 -24.688 12.9839 2.01131 -12.4932 -5.95765 -86.549 5.75868 -0.326811 -7.70172 -7.40201 2.25554 3.26205 -20.9441 2.01821 0.642231 
-222.823 93.36 -242.988 100.386 -50.5234 93.9511 -172.666 17.2396 90.5316 -1.96705 6.4571 -2.56353 63.6967 2.85944 2.79433 44.1637 14.0839 15.8654 172.152 -10.6359 86.9429 -26.072 -17.7623 -3.42812 78.9512 -8.78277 -3.83952 33.9904 0.329494 -3.66722 1.00564 7.73502 -89.7075 11.4018 2.13754 0.366946 -0.267377 2.1516 0.272466 -22.8141 1.92839 0.992617 -2.80149 1.9284 0.992619 94.7015 -42.5181 -94.7697 21.7617 -25.8478 -6.64955 32.3918 -0.925781 -91.5332 -16.6066 0.0238009 -4.96645 -87.4765 -46.792 81.9382 -24.004 13.1646 1.60667 -11.7724 -5.70437 -88.6398 5.69119 -0.202137 -5.95328 -7.06192 2.86465 3.6458 -21.4272 2.65664 0.246981 
-215.29 92.0044 -237.078 104.182 -51.7838 94.1079 -172.342 15.3321 87.4076 -6.69901 7.48638 -4.48848 58.1016 0.242228 4.06468 45.6068 15.5742 15.9196 171.712 -11.6041 83.0632 -38.8125 -18.5158 -7.62518 74.0215 -6.45392 -3.06725 46.0328 0.610959 -3.64559 1.1592 7.97366 -89.3096 10.9137 2.62728 1.12296 -0.754941 2.67414 1.00619 -23.3018 2.16832 1.86084 -3.2892 2.16833 1.86084 94.4876 -43.0109 -95.0452 22.0134 -25.4306 -5.67389 31.5011 0.50117 -91.2523 -10.6743 0.00163614 -2.9071 -86.7172 -46.827 83.1288 -23.3253 14.7922 0.00447207 -14.7562 -5.68597 -89.2158 9.55674 -0.220728 -5.60742 -7.0774 2.57273 2.93498 -22.4061 2.42594 0.062938 
-206.98 91.7619 -230.493 103.975 -49.9756 91.953 -172.713 15.4729 84.4701 -16.4632 14.1164 -4.64396 52.6749 -3.51652 3.78039 39.1217 8.43885 6.38351 173.806 -5.68502 81.0854 -53.905 -17.3739 -8.47995 50.5483 2.24847 2.39773 47.2936 0.917425 1.21918 0.933753 7.81401 -88.9841 11.2251 2.33088 1.79238 -0.444822 2.4075 1.68803 -22.9799 1.68462 2.40991 -2.96726 1.6846 2.4099 94.1811 -44.768 -95.2534 23.1415 -22.4045 -1.72762 22.5663 -2.395 -89.7589 -5.45897 0.214844 -5.22464 -86.9005 -46.5124 82.7861 -23.3062 15.6439 0.703153 -14.8081 -5.9106 -88.5617 9.88608 -0.176851 -5.15589 -8.49175 2.29074 1.79821 -23.3084 2.23321 0.0294039 
-199.502 92.0515 -224.99 104.034 -49.6866 91.4488 -172.127 14.8901 82.653 -27.7903 14.2184 -5.2136 60.4954 2.03644 6.11477 31.5365 2.04167 2.06181 178.295 6.07695 81.08 -70.0795 -7.42628 -6.81587 37.7194 4.93732 4.98919 31.8732 0.379909 -3.7804 0.757669 7.75696 -88.9036 11.3364 2.01868 1.98029 -0.334358 2.10385 1.88953 -22.8637 1.33038 2.49522 -2.85109 1.33038 2.49522 94.2522 -45.8319 -94.9503 22.9261 -22.9898 -0.947764 22.6401 -1.34495 -88.1276 -8.03165 0.174164 -4.93335 -87.6955 -46.5603 81.554 -22.6338 15.8863 0.661639 -14.4745 -5.99324 -87.3446 12.8654 0.0247455 -3.5585 -9.00843 2.26691 2.15454 -22.7347 2.24251 -0.200961 
-191.976 94.3438 -219.299 102.489 -47.5751 94.1305 -172.194 8.79592 85.5774 -25.9591 17.3305 -4.34276 62.738 4.10942 7.97936 31.7723 2.3953 -0.599149 178.239 15.552 86.2325 -71.1133 0.307447 -4.24322 48.8211 0.831569 0.906665 30.5122 0.334715 -5.03973 0.376687 7.63186 -89.3819 11.6039 1.0389 1.12416 -0.0670863 1.08736 1.07735 -22.5999 0.653042 1.38438 -2.58727 0.653032 1.38438 94.5497 -46.5039 -94.358 22.5764 -29.1556 -1.71956 36.613 3.82487 -91.6371 -18.7548 -0.515281 -0.75902 -88.571 -46.1164 80.0955 -22.5268 15.5414 0.689001 -13.8268 -6.22775 -86.0651 10.494 0.133957 -2.37904 -9.71022 2.47869 2.27586 -22.5364 2.40982 0.165565 
